<?xml version="1.0" encoding="utf-8"?>
<!-- Generator: Adobe Illustrator 16.2.1, SVG Export Plug-In . SVG Version: 6.00 Build 0)  -->
<!DOCTYPE svg PUBLIC "-//W3C//DTD SVG 1.1//EN" "http://www.w3.org/Graphics/SVG/1.1/DTD/svg11.dtd">
<svg version="1.1" id="Layer_1" xmlns="http://www.w3.org/2000/svg" xmlns:xlink="http://www.w3.org/1999/xlink" x="0px" y="0px"
	 width="17px" height="17px" viewBox="0 0 17 17" enable-background="new 0 0 17 17" xml:space="preserve">
<path fill="#FFFFFF" d="M6.816,7.982c0,0,1.598-0.124,1.598-2.076C8.415,3.953,7.107,3,5.451,3H0v10.912h5.451
	c0,0,3.327,0.109,3.327-3.223C8.778,10.689,8.923,7.982,6.816,7.982z M2.402,4.94H5.45c0,0,0.741,0,0.741,1.136
	c0,1.135-0.436,1.3-0.93,1.3H2.402V4.94z M5.296,11.973H2.402V9.057H5.45c0,0,1.104-0.015,1.104,1.498
	C6.555,11.831,5.73,11.963,5.296,11.973z M13.215,5.777c-4.027,0-4.023,4.191-4.023,4.191s-0.276,4.173,4.023,4.173
	c0,0,3.584,0.215,3.584-2.901h-1.842c0,0,0.061,1.174-1.68,1.174c0,0-1.846,0.129-1.846-1.899h5.43
	C16.861,10.512,17.454,5.777,13.215,5.777z M14.854,9.057h-3.439c0,0,0.225-1.681,1.843-1.681
	C14.873,7.375,14.854,9.057,14.854,9.057z M15.282,3.643h-4.32v1.345h4.32V3.643z"/>
</svg>
