<?xml version="1.0" encoding="utf-8"?>
<!-- Generator: Adobe Illustrator 16.2.1, SVG Export Plug-In . SVG Version: 6.00 Build 0)  -->
<!DOCTYPE svg PUBLIC "-//W3C//DTD SVG 1.1//EN" "http://www.w3.org/Graphics/SVG/1.1/DTD/svg11.dtd">
<svg version="1.1" id="Layer_1" xmlns="http://www.w3.org/2000/svg" xmlns:xlink="http://www.w3.org/1999/xlink" x="0px" y="0px"
	 width="17px" height="17px" viewBox="0 0 17 17" enable-background="new 0 0 17 17" xml:space="preserve">
<path fill="#FFFFFF" d="M13.639,8.499c0,2.838-2.304,5.14-5.141,5.14c-2.838,0-5.138-2.302-5.138-5.14
	c0-0.338,0.033-0.668,0.096-0.988H0v6.831c0,1.467,1.189,2.656,2.656,2.656h11.686c1.465,0,2.656-1.189,2.656-2.656V7.511h-3.456
	C13.605,7.831,13.639,8.161,13.639,8.499z M14.342,0H2.656C1.189,0,0,1.189,0,2.656v2.878h4.303C5.233,4.219,6.766,3.36,8.498,3.36
	c1.734,0,3.268,0.858,4.195,2.174h4.305V2.656C16.998,1.189,15.807,0,14.342,0z M15.641,3.281c0,0.261-0.215,0.475-0.475,0.475
	h-1.424c-0.262,0-0.475-0.213-0.475-0.475V1.858c0-0.261,0.213-0.475,0.475-0.475h1.424c0.26,0,0.475,0.213,0.475,0.475V3.281z
	 M11.66,8.499c0-1.747-1.415-3.163-3.162-3.163c-1.745,0-3.162,1.417-3.162,3.163s1.417,3.161,3.162,3.161
	C10.245,11.66,11.66,10.245,11.66,8.499z"/>
</svg>
