<?xml version="1.0" encoding="utf-8"?>
<!-- Generator: Adobe Illustrator 16.2.1, SVG Export Plug-In . SVG Version: 6.00 Build 0)  -->
<!DOCTYPE svg PUBLIC "-//W3C//DTD SVG 1.1//EN" "http://www.w3.org/Graphics/SVG/1.1/DTD/svg11.dtd">
<svg version="1.1" id="Layer_1" xmlns="http://www.w3.org/2000/svg" xmlns:xlink="http://www.w3.org/1999/xlink" x="0px" y="0px"
	 width="17px" height="17px" viewBox="0 0 17 17" enable-background="new 0 0 17 17" xml:space="preserve">
<path fill="#FFFFFF" d="M7.924,5.985C6.696,3.802,5.383,2.023,5.286,1.893C3.306,2.83,1.828,4.654,1.367,6.852
	C1.553,6.856,4.513,6.891,7.924,5.985z M8.808,8.371c0.093-0.03,0.187-0.058,0.28-0.084C8.91,7.883,8.715,7.479,8.511,7.079
	C4.855,8.174,1.344,8.095,1.22,8.091c-0.002,0.075-0.005,0.15-0.005,0.226c0,1.826,0.69,3.49,1.822,4.75
	c-0.001-0.002-0.004-0.008-0.004-0.008S4.976,9.611,8.808,8.371z M3.951,13.916l0.001-0.004c-0.052-0.041-0.108-0.078-0.16-0.122
	C3.886,13.866,3.951,13.916,3.951,13.916z M6.615,1.421C6.608,1.423,6.603,1.424,6.596,1.425C6.607,1.423,6.615,1.422,6.615,1.421
	L6.615,1.421z M13.007,2.986c-1.25-1.102-2.892-1.772-4.69-1.772c-0.578,0-1.137,0.07-1.673,0.2c0.108,0.143,1.44,1.914,2.655,4.143
	C11.977,4.554,12.988,3.016,13.007,2.986z M8.316,16.633C3.724,16.633,0,12.909,0,8.316C0,3.723,3.724,0,8.316,0
	c4.592,0,8.316,3.724,8.316,8.316C16.632,12.908,12.909,16.633,8.316,16.633z M9.523,9.479c-4.167,1.453-5.543,4.375-5.571,4.435
	c1.205,0.942,2.717,1.508,4.364,1.508c0.983,0,1.92-0.202,2.772-0.563c-0.105-0.621-0.518-2.797-1.518-5.393
	C9.557,9.469,9.541,9.475,9.523,9.479z M9.844,6.616c0.167,0.338,0.325,0.683,0.473,1.03c0.054,0.122,0.104,0.245,0.154,0.366
	c2.452-0.308,4.868,0.215,4.946,0.233c-0.017-1.686-0.619-3.23-1.615-4.44C13.787,3.827,12.648,5.471,9.844,6.616z M10.902,9.135
	c0.933,2.562,1.312,4.648,1.383,5.072c1.594-1.077,2.729-2.783,3.045-4.764C15.188,9.398,13.199,8.767,10.902,9.135z"/>
</svg>
